<svg xmlns="http://www.w3.org/2000/svg" width="9" height="17" viewBox="0 0 9 17"><g><g><path fill="#ffcc2a" d="M6.141 16.36H2.949V8.1H.821V6.036h2.128l-.003-2.07c0-2.214.801-3.603 3.537-3.603L8.8.36V2.94L7.359 2.94c-1.06 0-1.205.086-1.218.517-.03.87 0 2.58 0 2.58h2.66l-.532 2.065H6.141z"/><path fill="#fff" d="M6.141 16.36H2.949V8.1H.821V6.036h2.128l-.003-2.07c0-2.214.801-3.603 3.537-3.603L8.8.36V2.94L7.359 2.94c-1.06 0-1.205.086-1.218.517-.03.87 0 2.58 0 2.58h2.66l-.532 2.065H6.141z"/></g></g></svg>